# xmcd CD database file
#
# Track frame offsets:
#	150
#	14913
#	36178
#	61882
#	79593
#	93274
#	109760
#	131321
#	153610
#	175180
#	185853
#	202811
#	224675
#	245329
#	267388
#	280304
#	304380
#
# Disc length: 4449 seconds
#
# Revision: 0
# Processed by: cddbd v1.5.2PL0 Copyright (c) Steve Scherf et al.
# Submitted via: CDex 1.51
#
DISCID=f9115f11
DTITLE=Hampton Hawes - Seven Classic Albums CD1
DYEAR=1955
DGENRE=Jazz
TTITLE0=I Got Rythm
TTITLE1=What Is This Thing Called Love
TTITLE2=Blues The Most
TTITLE3=So In Love
TTITLE4=Feelin' Fine
TTITLE5=Hamp's Blues
TTITLE6=Esy Living
TTITLE7=All The Things You Are
TTITLE8=These Foolish Things (Remind Me Of You)
TTITLE9=Carioca
TTITLE10=You And The Night And The Music
TTITLE11=Stella By Starlight
TTITLE12=Blues For Jacque
TTITLE13=Yesterdays
TTITLE14=Steeplechase
TTITLE15='Round Midnight
TTITLE16=Just Squeeze Me (But Don't Tease Me)
EXTD=YEAR: 1955
EXTT0=
EXTT1=
EXTT2=
EXTT3=
EXTT4=
EXTT5=
EXTT6=
EXTT7=
EXTT8=
EXTT9=
EXTT10=
EXTT11=
EXTT12=
EXTT13=
EXTT14=
EXTT15=
EXTT16=
PLAYORDER=
